<svg xmlns="http://www.w3.org/2000/svg" width="1024" height="1024" viewBox="0 0 1024 1024">
  <defs>
    <radialGradient id="sphere" cx="33%" cy="26%" r="74%">
      <stop offset="0%" stop-color="#FFFFFF"/>
      <stop offset="22%" stop-color="#FFFFFF"/>
      <stop offset="42%" stop-color="#FCFCFA"/>
      <stop offset="62%" stop-color="#F4F2EF"/>
      <stop offset="80%" stop-color="#F0EEEB"/>
      <stop offset="92%" stop-color="#E4E1DD"/>
      <stop offset="100%" stop-color="#D8D5D0"/>
    </radialGradient>
    <radialGradient id="shade" cx="64%" cy="68%" r="50%">
      <stop offset="65%" stop-color="#000000" stop-opacity="0"/>
      <stop offset="100%" stop-color="#000000" stop-opacity="0.06"/>
    </radialGradient>
    <clipPath id="ball">
      <circle cx="512" cy="512" r="512"/>
    </clipPath>
  </defs>

  <circle cx="512" cy="512" r="512" fill="url(#sphere)"/>
  <circle cx="512" cy="512" r="512" fill="url(#shade)"/>

  <g clip-path="url(#ball)" fill="none" stroke="#000000" stroke-linecap="square" stroke-linejoin="miter">
    <g stroke-width="14">
      <path d="M 220 420 L 380 420 L 520 520 L 680 400 L 820 440"/>
      <path d="M 280 580 L 420 520 L 520 620 L 640 540 L 780 600"/>
      <path d="M 340 340 L 420 420 L 520 360 L 600 440"/>
      <path d="M 360 680 L 520 620 L 620 700"/>
    </g>
    <g stroke-width="9" opacity="0.92">
      <path d="M 380 420 L 380 520 L 420 520"/>
      <path d="M 520 520 L 520 620 L 640 540"/>
      <path d="M 420 420 L 420 340 L 520 360"/>
      <path d="M 680 400 L 680 540 L 640 540"/>
      <path d="M 280 580 L 280 480 L 380 420"/>
      <path d="M 820 440 L 780 600"/>
      <path d="M 520 360 L 600 440 L 680 400"/>
      <path d="M 360 680 L 280 580"/>
    </g>
    <g fill="#000000" stroke="none">
      <circle cx="220" cy="420" r="20"/>
      <circle cx="380" cy="420" r="24"/>
      <circle cx="520" cy="520" r="28"/>
      <circle cx="680" cy="400" r="22"/>
      <circle cx="820" cy="440" r="18"/>
      <circle cx="280" cy="580" r="20"/>
      <circle cx="420" cy="520" r="18"/>
      <circle cx="520" cy="620" r="22"/>
      <circle cx="640" cy="540" r="20"/>
      <circle cx="780" cy="600" r="18"/>
      <circle cx="340" cy="340" r="16"/>
      <circle cx="520" cy="360" r="18"/>
      <circle cx="600" cy="440" r="14"/>
      <circle cx="360" cy="680" r="16"/>
      <circle cx="620" cy="700" r="14"/>
    </g>
  </g>
</svg>
